# xmcd
#
# Track frame offsets: 
#        150
#        12692
#        25479
#        38039
#        53106
#        67874
#        81558
#
# Disc length: 1277 seconds
#
# Revision: 0
# Processed by: cddbd v1.5.2PL0 Copyright (c) Steve Scherf et al.
# Submitted via: ExactAudioCopy v0.99pb4
#
DISCID=5904fb07
DTITLE=White Swan Black Swan - White Swan
DYEAR=2008
DGENRE=Alternative
TTITLE0=Finger and Nail
TTITLE1=Loyalties
TTITLE2=Ladyboy
TTITLE3=Giant Light
TTITLE4=Zona Rosa
TTITLE5=Ode to Sergio
TTITLE6=Down in the Valley
EXTD=
EXTT0=
EXTT1=
EXTT2=
EXTT3=
EXTT4=
EXTT5=
EXTT6=
PLAYORDER=
